# xmcd
#
# Track frame offsets: 
#        150
#        23301
#        43439
#        63905
#        69830
#        89012
#        111659
#        127176
#        144529
#        164022
#        183083
#        198755
#
# Disc length: 3075 seconds
#
# Revision: 0
# Processed by: cddbd v1.5.2PL0 Copyright (c) Steve Scherf et al.
# Submitted via: ExactAudioCopyFreeDBPlugin 1.0
#
DISCID=ad0c010c
DTITLE=Dr. Project Point Blank Blues Band - A Whiter Shade Of Blue
DYEAR=2008
DGENRE=Blues
TTITLE0=The Devil, God and I
TTITLE1=Belgrade Blues
TTITLE2=A Song For V.
TTITLE3=Buda's Lament (Radio Vox)
TTITLE4=Golden Arrows
TTITLE5=Last Pain
TTITLE6=Mama I Blew It
TTITLE7=No Pride
TTITLE8=Gonna Get Better
TTITLE9=Will We Ever See
TTITLE10=Roll On
TTITLE11=Love That Hurts
EXTD=
EXTT0=
EXTT1=
EXTT2=
EXTT3=
EXTT4=
EXTT5=
EXTT6=
EXTT7=
EXTT8=
EXTT9=
EXTT10=
EXTT11=
PLAYORDER=
